<svg width="204" height="16" viewBox="0 0 204 16" fill="none" xmlns="http://www.w3.org/2000/svg">
<g clip-path="url(#clip0)">
<path fill-rule="evenodd" clip-rule="evenodd" d="M1.37634 16C0.635238 16 0 15.3846 0 14.6667V6.35897C0 2.8718 2.96443 0 6.56411 0C10.1638 0 13.1282 2.8718 13.1282 6.35897C13.1282 9.84615 10.1638 12.7179 6.56411 12.7179C5.29363 12.7179 4.12903 12.4103 3.07031 11.7949L2.75269 11.5897V14.6667C2.75269 15.3846 2.11746 16 1.37634 16ZM6.45823 2.5641C4.34077 2.5641 2.54094 4.30769 2.54094 6.35897C2.54094 8.41026 4.34077 10.1538 6.45823 10.1538C8.57568 10.1538 10.3755 8.41026 10.3755 6.35897C10.3755 4.30769 8.57568 2.5641 6.45823 2.5641Z" fill="#7633FF"/>
<path d="M33.4558 15.7947C32.7147 15.7947 32.0795 15.1793 32.0795 14.4613V10.2562L27.3152 2.87159C27.1035 2.5639 27.1035 2.25621 27.1035 1.84595C27.2094 1.53826 27.4211 1.23056 27.7387 1.02544C27.9505 0.922875 28.1622 0.820312 28.4798 0.820312C29.0092 0.820312 29.4327 1.02544 29.6444 1.4357L33.4558 7.38441L37.2673 1.4357C37.479 1.02544 38.0083 0.820312 38.4319 0.820312C38.6436 0.820312 38.9612 0.922875 39.173 1.02544C39.4906 1.23056 39.7023 1.53826 39.8082 1.84595C39.9141 2.15364 39.8082 2.5639 39.5965 2.87159L34.8322 10.2562V14.4613C34.8322 15.1793 34.3028 15.7947 33.4558 15.7947Z" fill="#7633FF"/>
<path d="M24.9858 14.9742C25.1975 15.487 25.7269 15.7947 26.2562 15.7947C26.3621 15.7947 26.5739 15.7947 26.7856 15.6921C27.5267 15.3844 27.8443 14.6665 27.5267 13.9485L21.9155 1.64082C21.7037 1.33313 21.492 1.02544 21.1743 0.922875C21.0685 0.820313 20.8567 0.820312 20.645 0.820312C20.1156 0.820312 19.5863 1.128 19.3745 1.64082L13.7633 13.9485C13.4456 14.5639 13.7633 15.3844 14.5044 15.6921C14.6102 15.7947 14.822 15.7947 15.0337 15.7947C15.5631 15.7947 16.0925 15.487 16.3042 14.9742L20.645 5.4357L24.9858 14.9742Z" fill="#7633FF"/>
<path d="M46.4782 15.8982C44.7842 15.8982 43.0903 15.2829 42.1374 14.3598C41.8198 14.1546 41.7139 13.7444 41.7139 13.4367C41.7139 13.0264 41.8198 12.7187 42.1374 12.5136C42.455 12.2059 42.7726 12.1034 43.1961 12.1034C43.5137 12.1034 43.9372 12.2059 44.149 12.5136C44.6783 13.0264 45.7371 13.3341 46.5841 13.3341C48.0663 13.3341 48.9133 12.6162 48.9133 11.488C48.9133 10.0521 47.5369 9.64183 46.0547 9.23157C44.0431 8.71875 41.8198 8.0008 41.8198 4.92388C41.8198 2.5649 43.9372 0.71875 46.5841 0.71875C48.5956 0.71875 50.6072 1.4367 50.6072 2.77003C50.6072 3.48798 49.972 4.0008 49.3367 4.0008C49.125 4.0008 48.8074 3.89824 48.3839 3.69311C47.8545 3.48798 47.2193 3.28285 46.4782 3.28285H46.1605C45.1018 3.38541 44.5725 4.0008 44.5725 4.92388C44.5725 6.15465 45.9488 6.5649 47.431 6.97516L47.5532 7.01062C49.6371 7.61508 51.8777 8.26501 51.8777 11.2829C51.6659 13.847 49.3367 15.8982 46.4782 15.8982Z" fill="#7633FF"/>
<path fill-rule="evenodd" clip-rule="evenodd" d="M83.0039 14.4603C83.0039 15.1783 83.5333 15.6911 84.2744 15.6911H87.5564C91.7914 15.6911 95.1793 12.3065 95.1793 8.30648C95.1793 4.30648 91.7914 0.921875 87.5564 0.921875H84.2744C83.5333 0.921875 83.0039 1.4347 83.0039 2.15265V14.4603ZM87.5564 13.2296H85.7566V3.38341H87.6623C90.2033 3.38341 92.3207 5.53726 92.3207 8.30648C92.3207 10.9732 90.2033 13.2296 87.5564 13.2296Z" fill="#7633FF"/>
<path d="M55.9014 15.6911C55.1602 15.5885 54.6309 15.0757 54.6309 14.3578V2.25521C54.6309 1.53726 55.2661 0.921875 56.0072 0.921875H62.3596C63.1007 0.921875 63.6301 1.4347 63.6301 2.15265C63.6301 2.8706 63.1007 3.38341 62.3596 3.38341H57.3836V6.56289H61.9361C62.6772 6.56289 63.2066 7.07573 63.2066 7.79367C63.2066 8.51162 62.6772 9.02443 61.9361 9.02443H57.3836V13.2296H62.3596C63.1007 13.2296 63.6301 13.7424 63.6301 14.4603C63.6301 15.1783 63.1007 15.6911 62.3596 15.6911H55.9014Z" fill="#7633FF"/>
<path d="M76.6514 15.1793C76.8632 15.5896 77.3925 15.7947 77.816 15.7947C78.5571 15.7947 79.1924 15.1793 79.1924 14.4613V2.15364C79.1924 1.4357 78.5571 0.820312 77.816 0.820312C77.0749 0.820312 76.4397 1.4357 76.4397 2.15364V10.769L76.0162 10.2562C73.7929 7.17929 69.4521 1.4357 69.3462 1.33313C69.1345 1.02544 68.711 0.820312 68.2875 0.820312C67.5464 0.820312 66.9111 1.4357 66.9111 2.15364V14.4613C66.9111 15.1793 67.5464 15.7947 68.2875 15.7947C69.0286 15.7947 69.6638 15.1793 69.6638 14.4613V5.84595L76.6514 15.1793Z" fill="#7633FF"/>
<path d="M104.48 1.39672V15.7567H108.78C111.34 15.7567 113.4 14.2167 113.4 11.5567C113.4 9.81672 112.58 8.67672 111.42 8.09672C112.2 7.45672 112.66 6.61672 112.66 5.33672C112.66 2.75672 110.72 1.39672 108.1 1.39672H104.48ZM109.24 9.61672C110.36 9.61672 111.14 10.5167 111.14 11.5167C111.14 12.6167 110.3 13.4167 109.26 13.4167H106.74V9.61672H109.24ZM108.58 3.75672C109.66 3.75672 110.42 4.55672 110.42 5.55672C110.42 6.63672 109.62 7.35672 108.58 7.35672H106.74V3.75672H108.58Z" fill="#25282B"/>
<path d="M122.502 13.5767C120.422 13.5767 119.062 12.1967 119.062 10.0367V1.39672H116.802V10.0567C116.802 13.6367 119.102 16.0167 122.502 16.0167C125.902 16.0167 128.202 13.6367 128.202 10.0567V1.39672H125.942V10.0367C125.942 12.1967 124.582 13.5767 122.502 13.5767Z" fill="#25282B"/>
<path d="M137.869 8.45672C137.269 7.89672 136.609 7.41672 135.069 6.15672C134.609 5.79672 134.009 5.23672 134.009 4.65672C134.009 3.85672 134.809 3.57672 135.549 3.57672C136.689 3.57672 138.009 4.19672 138.789 5.27672L139.249 3.09672C138.649 2.07672 137.229 1.13672 135.549 1.13672C133.389 1.13672 131.709 2.41672 131.709 4.57672C131.709 5.75672 132.309 6.63672 133.109 7.47672C133.829 8.25672 134.909 9.09672 136.429 10.3367C137.089 10.8967 137.529 11.4567 137.529 12.1367C137.529 13.0367 136.829 13.5767 135.709 13.5767C134.229 13.5767 132.729 12.6967 131.909 11.3767L131.229 13.5767C131.689 14.7367 133.589 16.0167 135.609 16.0167C138.109 16.0167 139.829 14.4367 139.829 12.0967C139.829 10.5167 139.009 9.45672 137.869 8.45672Z" fill="#25282B"/>
<path d="M143.111 15.7567H145.371V1.39672H143.111V15.7567Z" fill="#25282B"/>
<path d="M149.653 15.7567H151.913V5.31672L159.073 15.7567H161.413V1.39672H159.153V11.9167L151.993 1.39672H149.653V15.7567Z" fill="#25282B"/>
<path d="M165.688 15.7567H173.488V13.3167H167.947V9.59672H172.888V7.15672H167.947V3.83672H173.488V1.39672H165.688V15.7567Z" fill="#25282B"/>
<path d="M182.71 8.45672C182.11 7.89672 181.45 7.41672 179.91 6.15672C179.45 5.79672 178.85 5.23672 178.85 4.65672C178.85 3.85672 179.65 3.57672 180.39 3.57672C181.53 3.57672 182.85 4.19672 183.63 5.27672L184.09 3.09672C183.49 2.07672 182.07 1.13672 180.39 1.13672C178.23 1.13672 176.55 2.41672 176.55 4.57672C176.55 5.75672 177.15 6.63672 177.95 7.47672C178.67 8.25672 179.75 9.09672 181.27 10.3367C181.93 10.8967 182.37 11.4567 182.37 12.1367C182.37 13.0367 181.67 13.5767 180.55 13.5767C179.07 13.5767 177.57 12.6967 176.75 11.3767L176.07 13.5767C176.53 14.7367 178.43 16.0167 180.45 16.0167C182.95 16.0167 184.67 14.4367 184.67 12.0967C184.67 10.5167 183.85 9.45672 182.71 8.45672Z" fill="#25282B"/>
<path d="M193.432 8.45672C192.832 7.89672 192.172 7.41672 190.632 6.15672C190.172 5.79672 189.572 5.23672 189.572 4.65672C189.572 3.85672 190.372 3.57672 191.112 3.57672C192.252 3.57672 193.572 4.19672 194.352 5.27672L194.812 3.09672C194.212 2.07672 192.792 1.13672 191.112 1.13672C188.952 1.13672 187.272 2.41672 187.272 4.57672C187.272 5.75672 187.872 6.63672 188.672 7.47672C189.392 8.25672 190.472 9.09672 191.992 10.3367C192.652 10.8967 193.092 11.4567 193.092 12.1367C193.092 13.0367 192.392 13.5767 191.272 13.5767C189.792 13.5767 188.292 12.6967 187.472 11.3767L186.792 13.5767C187.252 14.7367 189.152 16.0167 191.172 16.0167C193.672 16.0167 195.392 14.4367 195.392 12.0967C195.392 10.5167 194.572 9.45672 193.432 8.45672Z" fill="#25282B"/>
</g>
<defs>
<clipPath id="clip0">
<rect width="204" height="16" fill="white"/>
</clipPath>
</defs>
</svg>
